<?xml version="1.0" encoding="UTF-8"?>
<svg width="1000px" height="1000px" viewBox="0 0 1000 1000" version="1.1" xmlns="http://www.w3.org/2000/svg" xmlns:xlink="http://www.w3.org/1999/xlink" style="background: #FFFFFF;">
    <!-- Generator: Sketch 49 (51002) - http://www.bohemiancoding.com/sketch -->
    <title>atticlab-logo-1000</title>
    <desc>Created with Sketch.</desc>
    <defs></defs>
    <g id="atticlab-logo-1000" stroke="none" stroke-width="1" fill="none" fill-rule="evenodd">
        <g id="Group" transform="translate(-62.000000, 103.000000)" fill="#6D7273">
            <path d="M85.76,758 L133.76,645.2 L156.48,645.2 L204.48,758 L178.72,758 L168.48,732.88 L121.12,732.88 L110.88,758 L85.76,758 Z M129.92,711.12 L159.68,711.12 L144.8,674.8 L129.92,711.12 Z M249.44,758 L249.44,668.72 L215.36,668.72 L215.36,646 L308.16,646 L308.16,668.72 L274.08,668.72 L274.08,758 L249.44,758 Z M369.12,758 L369.12,668.72 L335.04,668.72 L335.04,646 L427.84,646 L427.84,668.72 L393.76,668.72 L393.76,758 L369.12,758 Z M463.84,758 L463.84,646 L488.48,646 L488.48,758 L463.84,758 Z M584.96,759.92 C552,759.92 527.52,734.48 527.52,702 C527.52,670.16 551.52,644.08 585.92,644.08 C607.04,644.08 618.88,652.08 629.28,662.32 L614.56,679.28 C605.92,671.44 598.56,666.8 585.76,666.8 C566.88,666.8 553.28,682.48 553.28,702 C553.28,721.2 566.56,737.2 585.76,737.2 C598.56,737.2 606.4,732.08 615.2,724.08 L630.88,740.88 C619.36,753.2 606.56,759.92 584.96,759.92 Z M666.56,758 L666.56,646 L691.2,646 L691.2,735.6 L747.04,735.6 L747.04,758 L666.56,758 Z M772,758 L820,645.2 L842.72,645.2 L890.72,758 L864.96,758 L854.72,732.88 L807.36,732.88 L797.12,758 L772,758 Z M816.16,711.12 L845.92,711.12 L831.04,674.8 L816.16,711.12 Z M924,758 L924,646 L976,646 C988.8,646 998.88,649.52 1005.28,655.92 C1010.4,661.04 1012.96,667.28 1012.96,675.28 C1012.96,687.92 1006.24,694.96 998.24,699.44 C1011.2,704.4 1019.2,711.92 1019.2,727.28 C1019.2,747.76 1002.56,758 977.28,758 L924,758 Z M948,691.28 L970.72,691.28 C981.6,691.28 988.48,687.76 988.48,679.12 C988.48,671.76 982.72,667.6 972.32,667.6 L948,667.6 L948,691.28 Z M948,736.4 L977.28,736.4 C988.16,736.4 994.72,732.56 994.72,723.92 C994.72,716.4 989.12,711.76 976.48,711.76 L948,711.76 L948,736.4 Z" id="ATTICLAB"></path>
            <path d="M617.127686,567.789311 L617.127686,591.328664 C613.640109,592.601594 611.14975,595.951314 611.14975,599.879314 C611.14975,604.904791 615.224557,608.977808 620.248243,608.977808 C625.27372,608.977808 629.348527,604.904791 629.348527,599.879314 C629.348527,595.951314 626.858168,592.601594 623.370591,591.328664 L623.370591,567.789311 L617.127686,567.789311 Z M668.741315,591.328664 C665.253738,592.601594 662.763379,595.951314 662.763379,599.879314 C662.763379,604.904791 666.838187,608.977808 671.861873,608.977808 C676.887349,608.977808 680.962156,604.904791 680.962156,599.879314 C680.962156,595.951314 678.471797,592.601594 674.984221,591.328664 L674.984221,567.789311 L668.741315,567.789311 L668.741315,591.328664 Z M944.102329,518.725122 C940.174329,518.725122 936.826399,521.217271 935.553469,524.703058 L725.96228,524.703058 L725.96228,530.945963 L840.092692,530.945963 L845.28109,534.845318 L884.394585,564.230121 L885.237834,564.8639 L886.260116,564.8639 L926.827366,564.8639 L926.825575,591.325083 C923.332628,592.594432 920.835107,595.945943 920.835107,599.879314 C920.835107,604.904791 924.909915,608.977808 929.933601,608.977808 C934.959077,608.977808 939.033884,604.904791 939.033884,599.879314 C939.033884,595.947734 936.538154,592.594432 933.043416,591.325083 L933.045207,564.8639 L943.672648,564.8639 L943.672648,599.879314 L943.672648,602.999872 L946.794996,602.999872 L988.602949,602.999872 C989.877669,606.487449 993.225599,608.977808 997.153599,608.977808 C1002.17908,608.977808 1006.25388,604.904791 1006.25388,599.879314 C1006.25388,594.853838 1002.17908,590.780821 997.153599,590.780821 C993.225599,590.780821 989.877669,593.27118 988.602949,596.758757 L949.915553,596.758757 L949.915553,564.8639 L960.51972,564.8639 C961.79444,568.351477 965.142371,570.841836 969.07037,570.841836 C974.095847,570.841836 978.170654,566.768819 978.170654,561.743343 C978.170654,556.717866 974.095847,552.643059 969.07037,552.643059 C965.142371,552.643059 961.79444,555.133418 960.51972,558.622785 L887.282399,558.622785 L850.442632,530.945963 L935.553469,530.945963 C936.826399,534.43354 940.174329,536.923899 944.102329,536.923899 C949.127805,536.923899 953.202612,532.849092 953.202612,527.825406 C953.202612,522.799929 949.127805,518.725122 944.102329,518.725122 Z M892.33294,448.400679 C888.40494,448.400679 885.055219,450.891038 883.78229,454.380405 L733.707279,454.380405 L725.96228,454.380405 L725.96228,464.943394 L731.028935,468.749651 L767.831105,496.394247 L768.674354,497.028026 L769.696636,497.028026 L910.034003,497.028026 L910.034003,493.907468 C910.034003,488.881992 914.108811,484.807185 919.134287,484.807185 C924.159763,484.807185 928.234571,488.881992 928.234571,493.907468 C928.234571,498.931154 924.159763,503.005962 919.134287,503.005962 C914.108811,503.005962 910.034003,498.931154 910.034003,493.907468 L910.034003,490.78512 L770.718919,490.78512 L738.643238,466.692554 L730.559866,460.62152 L883.78229,460.62152 C885.055219,464.109097 888.40494,466.599456 892.33294,466.599456 C897.356626,466.599456 901.431433,462.524649 901.431433,457.500963 C901.431433,452.475486 897.356626,448.400679 892.33294,448.400679 Z M790.625677,310.240362 C795.651154,310.240362 799.724171,314.315169 799.724171,319.338855 C799.724171,323.266855 797.233812,326.616576 793.746235,327.889505 L793.746235,352.624803 L808.876374,352.624803 C810.149304,349.137227 813.499025,346.646868 817.427024,346.646868 C822.452501,346.646868 826.525518,350.721675 826.525518,355.745361 C826.525518,360.770837 822.452501,364.845645 817.427024,364.845645 C813.499025,364.845645 810.149304,362.355286 808.876374,358.867709 L793.746235,358.867709 L793.746235,381.649749 L793.746235,382.672032 L793.112456,383.51528 L790.838727,386.54274 L833.846206,386.54274 C835.119136,383.055164 838.467066,380.564805 842.395066,380.564805 C847.420542,380.564805 851.49535,384.639612 851.49535,389.665088 C851.49535,394.688774 847.420542,398.763582 842.395066,398.763582 C838.467066,398.763582 835.119136,396.273223 833.846206,392.785646 L786.149834,392.785646 L780.92384,399.739316 L779.980333,400.994342 L778.437062,400.994342 L738.892095,400.994342 L738.892095,409.85114 L753.016065,420.460678 L858.814248,420.460678 C860.087178,416.973101 863.435108,414.482742 867.363108,414.482742 C872.388584,414.482742 876.463392,418.557549 876.463392,423.581235 C876.463392,428.606712 872.388584,432.681519 867.363108,432.681519 C863.435108,432.681519 860.087178,430.19116 858.814248,426.703583 L751.993782,426.703583 L750.9715,426.703583 L750.130041,426.068014 L733.906006,413.881189 L732.64919,412.939471 L732.64919,411.39441 L732.64919,400.994342 L725.96228,400.994342 L725.96228,394.753227 L776.893791,394.753227 L787.503329,380.629257 L787.503329,327.889505 C784.015753,326.616576 781.525394,323.266855 781.525394,319.338855 C781.525394,314.315169 785.600201,310.240362 790.625677,310.240362 Z M725.96228,351.471826 L725.96228,345.230711 L751.92575,345.230711 L762.535288,331.104951 L762.535288,71.5418722 C759.047711,70.2689424 756.557352,66.921012 756.557352,62.991222 C756.557352,57.967536 760.632159,53.8927286 765.655845,53.8927286 C770.681322,53.8927286 774.756129,57.967536 774.756129,62.991222 C774.756129,66.921012 772.26577,70.2689424 768.778193,71.5418722 L768.778193,332.127233 L768.778193,333.149516 L768.144414,333.992765 L755.955799,350.21501 L755.012291,351.471826 L753.46902,351.471826 L725.96228,351.471826 Z M740.687803,53.8927286 C735.662327,53.8927286 731.58931,57.967536 731.58931,62.991222 C731.58931,66.921012 734.079669,70.2689424 737.567246,71.5418722 L737.567246,306.478863 L729.181307,317.641616 L725.96228,321.925892 L725.96228,332.279412 L743.176372,309.364887 L743.810151,308.521638 L743.810151,307.499356 L743.810151,71.5418722 C747.297728,70.2689424 749.788087,66.921012 749.788087,62.991222 C749.788087,57.967536 745.71328,53.8927286 740.687803,53.8927286 Z M718.840319,71.5418722 L718.840319,240.336648 L713.274161,240.336648 L712.599204,240.336648 L712.599204,71.5418722 C709.111627,70.2689424 706.621268,66.921012 706.621268,62.991222 C706.621268,57.967536 710.696076,53.8927286 715.719762,53.8927286 C720.745238,53.8927286 724.818255,57.967536 724.818255,62.991222 C724.818255,66.921012 722.327896,70.2689424 718.840319,71.5418722 Z M685.796067,240.336648 L685.796067,71.5418722 C682.30849,70.2689424 679.818131,66.921012 679.818131,62.991222 C679.818131,57.967536 683.892938,53.8927286 688.918415,53.8927286 C693.942101,53.8927286 698.016908,57.967536 698.016908,62.991222 C698.016908,66.921012 695.526549,70.2689424 692.038972,71.5418722 L692.038972,240.336648 L685.796067,240.336648 Z M667.070931,71.5418722 L667.070931,193.855915 L667.070931,194.878198 L666.437151,195.721447 L654.882315,211.100443 L654.882315,240.336648 L648.6412,240.336648 L648.6412,210.07816 L648.6412,209.059458 L649.274979,208.214419 L660.828025,192.833633 L660.828025,71.5418722 C657.340448,70.2689424 654.850089,66.921012 654.850089,62.991222 C654.850089,57.967536 658.924897,53.8927286 663.948583,53.8927286 C668.974059,53.8927286 673.048866,57.967536 673.048866,62.991222 C673.048866,66.921012 670.558507,70.2689424 667.070931,71.5418722 Z M621.542657,157.721541 L621.542657,139.107406 L611.25717,119.521117 L610.891941,118.826466 L610.891941,118.070944 L610.891941,87.9753768 C607.402574,86.7006567 604.914006,83.3527263 604.914006,79.4247266 C604.914006,74.3992502 608.988813,70.3244429 614.012499,70.3244429 C619.037975,70.3244429 623.112783,74.3992502 623.112783,79.4247266 C623.112783,83.3527263 620.622424,86.7006567 617.134847,87.9753768 L617.134847,117.315422 L627.418544,136.90171 L627.783772,137.598151 L627.783772,138.353674 L627.783772,165.73509 L627.694255,165.604395 L627.604739,165.473701 L627.520593,165.351958 L627.515222,165.343006 L627.423915,165.212311 L627.332607,165.081617 L627.24309,164.952712 L627.24309,164.950922 L627.151783,164.820228 L626.967379,164.560629 L626.963798,164.555258 L626.691667,164.172125 L626.680925,164.157803 L626.598569,164.043221 L626.412374,163.785413 L626.396261,163.763929 L626.319277,163.656508 L626.224389,163.527604 L626.131291,163.40049 L626.109807,163.371845 L626.036403,163.273376 L625.846627,163.017358 L625.819772,162.981551 L625.75174,162.890244 L625.656852,162.76313 L625.561964,162.636016 L625.527947,162.591258 L625.370398,162.381788 L625.27372,162.256465 L625.234332,162.204545 L625.080363,162.004027 L624.983685,161.878704 L624.938927,161.819622 L624.887007,161.75338 L624.788538,161.628056 L624.63994,161.43649 L624.593391,161.377409 L624.494923,161.252086 L624.396454,161.126762 L624.339164,161.055149 L624.199517,160.879695 L624.099258,160.754372 L624.034806,160.675597 L624.00079,160.630839 L623.900531,160.507305 L623.800272,160.383772 L623.730449,160.297836 L623.700013,160.260239 L623.599754,160.138496 L623.499496,160.014963 L623.422511,159.921865 L623.399237,159.89322 L623.297187,159.769686 L623.196929,159.647944 L623.112783,159.547685 L623.094879,159.526201 L622.99283,159.404458 L622.890781,159.282715 L622.801264,159.175295 L622.788732,159.160972 L622.686682,159.041019 L622.582843,158.919276 L622.486165,158.804695 L622.480794,158.799324 L622.376954,158.677581 L622.273115,158.557628 L622.169275,158.437676 L622.065435,158.317723 L621.861337,158.083189 L621.857756,158.079608 L621.850595,158.070657 L621.752126,157.959656 L621.648287,157.839703 L621.542657,157.721541 Z M630.392293,169.82601 L635.859983,159.411619 L635.859983,121.891524 C632.372406,120.618594 629.882047,117.270663 629.882047,113.342664 C629.882047,108.317187 633.956855,104.24238 638.980541,104.24238 C644.006017,104.24238 648.080824,108.317187 648.080824,113.342664 C648.080824,117.270663 645.590465,120.618594 642.101098,121.891524 L642.101098,160.167141 L642.101098,160.924454 L641.73766,161.619105 L633.935371,176.475322 L633.883451,176.369692 L633.863757,176.324934 L633.833321,176.262272 L633.783192,176.156642 L633.731272,176.049222 L633.681143,175.943592 L633.652497,175.884511 L633.629223,175.837962 L633.577303,175.730542 L633.571932,175.7198 L633.475254,175.519282 L633.437657,175.444088 L633.421544,175.413652 L633.317704,175.200602 L633.265785,175.094972 L633.221026,175.005456 L633.213865,174.989343 L633.160155,174.885503 L633.108235,174.779873 L633.054525,174.674243 L633.000815,174.568613 L632.948895,174.462983 L632.895185,174.359144 L632.787765,174.147884 L632.778813,174.131771 L632.732264,174.044044 L632.678554,173.938415 L632.571134,173.728945 L632.55323,173.698509 L632.515633,173.625106 L632.461923,173.521266 L632.406423,173.417426 L632.350922,173.311797 L632.325858,173.265248 L632.295422,173.207957 L632.239921,173.104117 L632.186211,173.000278 L632.128921,172.896438 L632.096694,172.833777 L632.07342,172.792599 L632.01792,172.69055 L631.962419,172.58671 L631.905128,172.482871 L631.863951,172.404096 L631.849628,172.379031 L631.792337,172.275191 L631.736837,172.173142 L631.679546,172.069303 L631.627626,171.977995 L631.622255,171.967253 L631.564964,171.863414 L631.507674,171.761365 L631.450383,171.659315 L631.393092,171.555476 L631.389511,171.550105 L631.335801,171.453427 L631.27851,171.351377 L631.219429,171.247538 L631.162138,171.145489 L631.149606,171.125795 L631.103057,171.043439 L631.043976,170.94139 L630.986685,170.839341 L630.927604,170.737292 L630.907911,170.703275 L630.868523,170.637033 L630.809442,170.534984 L630.750361,170.432934 L630.69128,170.330885 L630.660844,170.280756 L630.632199,170.230626 L630.571327,170.128577 L630.512246,170.026528 L630.451375,169.926269 L630.413778,169.860027 L630.392293,169.82601 Z M598.578002,139.76804 L598.578002,135.668168 L584.455823,108.773723 L584.090594,108.080863 L584.090594,107.32355 L584.090594,51.5670807 C580.601227,50.294151 578.110868,46.9444302 578.110868,43.0164305 C578.110868,37.9927445 582.185676,33.9179371 587.211152,33.9179371 C592.236628,33.9179371 596.309645,37.9927445 596.309645,43.0164305 C596.309645,46.9444302 593.819286,50.294151 590.33171,51.5670807 L590.33171,106.568028 L604.453889,133.462473 L604.819118,134.157123 L604.819118,134.914436 L604.819118,143.386311 L604.72423,143.32544 L604.629342,143.266359 L604.586374,143.235923 L604.534454,143.205487 L604.439566,143.144616 L604.344678,143.083744 L604.249791,143.024663 L604.172806,142.976324 L604.154903,142.963792 L604.060015,142.904711 L603.963337,142.843839 L603.868449,142.784758 L603.771771,142.725677 L603.761029,142.718516 L603.676883,142.666596 L603.580204,142.607515 L603.485317,142.548434 L603.388638,142.489352 L603.34567,142.462497 L603.29196,142.430271 L603.197072,142.37119 L603.100394,142.312109 L603.003716,142.254818 L602.928522,142.21006 L602.907038,142.195737 L602.81036,142.138446 L602.713681,142.079365 L602.617003,142.022074 L602.520325,141.964784 L602.511373,141.959413 L602.423647,141.907493 L602.326968,141.850202 L602.23029,141.792911 L602.131822,141.73562 L602.090644,141.710556 L602.035144,141.67833 L601.938465,141.621039 L601.839997,141.563748 L601.743319,141.508248 L601.669915,141.46528 L601.64485,141.450957 L601.548172,141.395456 L601.449703,141.338166 L601.351235,141.282665 L601.252766,141.227165 L601.245605,141.221794 L601.156088,141.169874 L601.057619,141.114373 L600.959151,141.058873 L600.860682,141.003373 L600.821295,140.981889 L600.762214,140.949662 L600.663745,140.894162 L600.466808,140.783161 L600.395195,140.743774 L600.36834,140.729451 L600.269871,140.673951 L600.171403,140.62024 L600.072934,140.56653 L599.972675,140.51103 L599.967304,140.50924 L599.874207,140.45732 L599.863465,140.451949 L599.675479,140.3499 L599.57522,140.296189 L599.537623,140.276496 L599.476752,140.242479 L599.376493,140.190559 L599.278024,140.136849 L599.177765,140.083139 L599.107942,140.047333 L599.077507,140.031219 L598.977248,139.977509 L598.878779,139.92559 L598.77852,139.87367 L598.578002,139.76804 Z M565.352926,591.325083 C568.847664,592.598013 571.341604,595.947734 571.341604,599.879314 C571.341604,604.904791 567.266796,608.977808 562.24311,608.977808 C557.217634,608.977808 553.142827,604.904791 553.142827,599.879314 C553.142827,595.945943 555.640347,592.594432 559.135085,591.325083 L559.135085,567.789311 L565.352926,567.789311 L565.352926,591.325083 Z M507.356744,567.789311 L507.356744,591.328664 C510.844321,592.601594 513.33468,595.951314 513.33468,599.879314 C513.33468,604.904791 509.261663,608.977808 504.236187,608.977808 C499.21071,608.977808 495.137694,604.904791 495.137694,599.879314 C495.137694,595.951314 497.628052,592.601594 501.115629,591.328664 L501.115629,567.789311 L507.356744,567.789311 Z M455.743115,591.328664 C459.230692,592.601594 461.721051,595.951314 461.721051,599.879314 C461.721051,604.904791 457.646243,608.977808 452.622557,608.977808 C447.597081,608.977808 443.522274,604.904791 443.522274,599.879314 C443.522274,595.951314 446.012633,592.601594 449.500209,591.328664 L449.500209,567.789311 L455.743115,567.789311 L455.743115,591.328664 Z M398.52394,556.809174 L398.52394,555.101192 L398.52394,550.566268 L379.012846,550.566268 L377.992354,550.566268 L377.147315,551.200047 L347.524396,573.450357 L346.281902,574.384913 L346.281902,575.937136 L346.283693,591.325083 C342.788954,592.598013 340.293225,595.947734 340.293225,599.879314 C340.293225,604.904791 344.368032,608.977808 349.393508,608.977808 C354.418985,608.977808 358.492002,604.904791 358.492002,599.879314 C358.492002,595.945943 355.996272,592.594432 352.499743,591.325083 L352.497953,577.489358 L380.033338,556.809174 L398.52394,556.809174 Z M417.027074,567.789311 L411.212059,567.789311 L406.675345,567.789311 L399.139816,573.450357 L397.895532,574.384913 L397.895532,575.937136 L397.897322,591.325083 C394.402584,592.598013 391.908644,595.947734 391.908644,599.879314 C391.908644,604.904791 395.981661,608.977808 401.007138,608.977808 C406.032614,608.977808 410.107421,604.904791 410.107421,599.879314 C410.107421,595.945943 407.609901,592.594432 404.115163,591.325083 L404.113373,577.489358 L417.027074,567.789311 Z M249.285017,591.328664 L249.285017,576.903918 L294.657531,576.903918 L294.657531,591.328664 C291.169954,592.601594 288.679595,595.951314 288.679595,599.879314 C288.679595,604.904791 292.754402,608.977808 297.778088,608.977808 C302.803565,608.977808 306.878372,604.904791 306.878372,599.879314 C306.878372,595.951314 304.388013,592.601594 300.900436,591.328664 L300.900436,564.443171 L328.421499,543.770148 L398.52394,543.770148 L398.52394,537.529033 L327.401007,537.529033 L326.380515,537.529033 L325.537266,538.162812 L295.914347,560.411332 L294.657531,561.35663 L294.657531,562.899901 L294.657531,570.661012 L246.164459,570.661012 L243.043901,570.661012 L243.043901,573.78157 L243.043901,591.328664 C239.556325,592.601594 237.065966,595.951314 237.065966,599.879314 C237.065966,604.904791 241.138983,608.977808 246.164459,608.977808 C251.189935,608.977808 255.264743,604.904791 255.264743,599.879314 C255.264743,595.951314 252.772593,592.601594 249.285017,591.328664 Z M180.382101,518.725122 C184.310101,518.725122 187.659822,521.217271 188.932752,524.703058 L398.52394,524.703058 L398.52394,530.945963 L284.393528,530.945963 L279.203341,534.845318 L240.089845,564.230121 L239.246596,564.8639 L238.226104,564.8639 L197.657064,564.8639 L197.658855,591.325083 C201.151803,592.594432 203.649323,595.945943 203.649323,599.879314 C203.649323,604.904791 199.574516,608.977808 194.55083,608.977808 C189.525353,608.977808 185.450546,604.904791 185.450546,599.879314 C185.450546,595.947734 187.948066,592.594432 191.441014,591.325083 L191.439224,564.8639 L180.811782,564.8639 L180.811782,599.879314 L180.811782,602.999872 L177.689434,602.999872 L135.881481,602.999872 C134.606761,606.487449 131.258831,608.977808 127.330831,608.977808 C122.305355,608.977808 118.230548,604.904791 118.230548,599.879314 C118.230548,594.853838 122.305355,590.780821 127.330831,590.780821 C131.258831,590.780821 134.606761,593.27118 135.881481,596.758757 L174.568877,596.758757 L174.568877,564.8639 L163.96471,564.8639 C162.68999,568.351477 159.342059,570.841836 155.41406,570.841836 C150.390374,570.841836 146.313776,566.768819 146.313776,561.743343 C146.313776,556.717866 150.390374,552.643059 155.41406,552.643059 C159.342059,552.643059 162.68999,555.133418 163.96471,558.622785 L237.202031,558.622785 L274.041799,530.945963 L188.932752,530.945963 C187.659822,534.43354 184.310101,536.923899 180.382101,536.923899 C175.356625,536.923899 171.281818,532.849092 171.281818,527.825406 C171.281818,522.799929 175.356625,518.725122 180.382101,518.725122 Z M232.153281,448.400679 C236.07949,448.400679 239.429211,450.891038 240.70214,454.380405 L392.352648,454.380405 L398.52394,454.380405 L398.52394,464.941604 L392.463649,469.494431 L356.653325,496.394247 L355.810077,497.028026 L354.787794,497.028026 L214.450427,497.028026 L214.450427,493.907468 C214.450427,498.931154 210.37562,503.005962 205.350143,503.005962 C200.324667,503.005962 196.25165,498.931154 196.25165,493.907468 C196.25165,488.881992 200.324667,484.807185 205.350143,484.807185 C210.37562,484.807185 214.450427,488.881992 214.450427,493.907468 L214.450427,490.78512 L353.765511,490.78512 L385.841192,466.692554 L393.924564,460.62152 L240.70214,460.62152 C239.429211,464.109097 236.07949,466.599456 232.153281,466.599456 C227.127804,466.599456 223.052997,462.524649 223.052997,457.500963 C223.052997,452.475486 227.127804,448.400679 232.153281,448.400679 Z M333.860543,310.240362 C328.835067,310.240362 324.760259,314.315169 324.760259,319.338855 C324.760259,323.266855 327.250618,326.616576 330.738195,327.889505 L330.738195,352.624803 L315.608056,352.624803 C314.335126,349.137227 310.985406,346.646868 307.057406,346.646868 C302.03372,346.646868 297.958912,350.721675 297.958912,355.745361 C297.958912,360.770837 302.03372,364.845645 307.057406,364.845645 C310.985406,364.845645 314.335126,362.355286 315.608056,358.867709 L330.738195,358.867709 L330.738195,381.649749 L330.738195,382.672032 L331.371975,383.51528 L333.645703,386.54274 L290.638224,386.54274 C289.367085,383.055164 286.017364,380.564805 282.089364,380.564805 C277.063888,380.564805 272.98908,384.639612 272.98908,389.665088 C272.98908,394.688774 277.063888,398.763582 282.089364,398.763582 C286.017364,398.763582 289.367085,396.273223 290.638224,392.785646 L338.336386,392.785646 L343.56059,399.739316 L344.504097,400.994342 L346.047368,400.994342 L385.592335,400.994342 L385.592335,409.85114 L371.468365,420.460678 L265.671972,420.460678 C264.399043,416.973101 261.049322,414.482742 257.121322,414.482742 C252.095846,414.482742 248.022829,418.557549 248.022829,423.581235 C248.022829,428.606712 252.095846,432.681519 257.121322,432.681519 C261.049322,432.681519 264.399043,430.19116 265.671972,426.703583 L372.490648,426.703583 L373.51293,426.703583 L374.356179,426.068014 L390.578424,413.881189 L391.83524,412.939471 L391.83524,411.39441 L391.83524,400.994342 L398.52394,400.994342 L398.52394,394.753227 L394.467036,394.753227 L347.590639,394.753227 L336.981101,380.629257 L336.981101,327.889505 C340.468678,326.616576 342.959037,323.266855 342.959037,319.338855 C342.959037,314.315169 338.88602,310.240362 333.860543,310.240362 Z M398.52394,351.471826 L398.52394,345.230711 L393.201268,345.230711 L372.55868,345.230711 L361.949143,331.104951 L361.949143,293.971568 C365.436719,292.696848 367.927078,289.348918 367.927078,285.420918 C367.927078,280.395442 363.852271,276.322425 358.828585,276.322425 C353.803109,276.322425 349.728301,280.395442 349.728301,285.420918 C349.728301,289.348918 352.220451,292.696848 355.708027,293.971568 L355.708027,332.127233 L355.708027,333.149516 L356.341807,333.992765 L368.528632,350.21501 L369.472139,351.471826 L371.01541,351.471826 L398.52394,351.471826 Z M383.796627,242.404488 C388.822103,242.404488 392.89691,246.479295 392.89691,251.502981 C392.89691,255.430981 390.406551,258.780701 386.917184,260.053631 L386.917184,306.478863 L396.286019,318.950352 L398.52394,321.929473 L398.52394,332.282993 L381.309848,309.364887 L380.674279,308.521638 L380.674279,307.499356 L380.674279,260.053631 C377.186702,258.780701 374.696343,255.430981 374.696343,251.502981 C374.696343,246.479295 378.77115,242.404488 383.796627,242.404488 Z M411.885226,226.135694 L411.885226,240.336648 L411.212059,240.336648 L405.644111,240.336648 L405.644111,226.135694 C402.156534,224.862764 399.666175,221.513043 399.666175,217.585044 C399.666175,212.561358 403.740982,208.48655 408.764668,208.48655 C413.790145,208.48655 417.864952,212.561358 417.864952,217.585044 C417.864952,221.513043 415.372803,224.862764 411.885226,226.135694 Z M432.445458,240.336648 L432.445458,189.729188 C428.957881,188.454468 426.467522,185.106538 426.467522,181.178538 C426.467522,176.153062 430.542329,172.078254 435.567806,172.078254 C440.591492,172.078254 444.666299,176.153062 444.666299,181.178538 C444.666299,185.106538 442.17594,188.454468 438.688363,189.729188 L438.688363,240.336648 L432.445458,240.336648 Z M463.656405,155.809461 L463.656405,192.833633 L475.211241,208.214419 L475.84502,209.059458 L475.84502,210.07816 L475.84502,240.336648 L469.602115,240.336648 L469.602115,211.100443 L458.047279,195.721447 L457.4135,194.878198 L457.4135,193.855915 L457.4135,155.809461 C453.925923,154.536531 451.435564,151.188601 451.435564,147.260601 C451.435564,142.235125 455.510371,138.162108 460.535848,138.162108 C465.559534,138.162108 469.634341,142.235125 469.634341,147.260601 C469.634341,151.188601 467.143982,154.536531 463.656405,155.809461 Z M496.700658,165.73509 L496.700658,138.353674 L496.700658,137.598151 L497.065887,136.90171 L507.351373,117.315422 L507.351373,87.9753768 C503.863797,86.7006567 501.371647,83.3527263 501.371647,79.4247266 C501.371647,74.3992502 505.446455,70.3244429 510.471931,70.3244429 C515.497407,70.3244429 519.570424,74.3992502 519.570424,79.4247266 C519.570424,83.3527263 517.081856,86.7006567 513.592489,87.9753768 L513.592489,118.070944 L513.592489,118.826466 L513.22905,119.521117 L502.941773,139.107406 L502.941773,157.721541 L502.837934,157.839703 L502.732304,157.959656 L502.633835,158.070657 L502.628464,158.077818 L502.615932,158.092141 L502.418995,158.317723 L502.315155,158.437676 L502.211316,158.557628 L502.107476,158.677581 L502.005427,158.799324 L501.998265,158.804695 L501.901587,158.919276 L501.799538,159.039229 L501.695698,159.160972 L501.593649,159.282715 L501.4916,159.404458 L501.389551,159.526201 L501.289292,159.647944 L501.187243,159.769686 L501.086984,159.891429 L501.061919,159.921865 L500.984935,160.014963 L500.884676,160.138496 L500.784417,160.260239 L500.753981,160.297836 L500.684158,160.383772 L500.583899,160.507305 L500.48364,160.630839 L500.449624,160.675597 L500.385172,160.754372 L500.286703,160.877905 L500.186444,161.003229 L500.145266,161.055149 L500.087976,161.126762 L499.989507,161.252086 L499.891039,161.377409 L499.84449,161.43649 L499.79436,161.502733 L499.695892,161.626266 L499.599214,161.75159 L499.545504,161.819622 L499.500745,161.878704 L499.404067,162.004027 L499.307389,162.129351 L499.250098,162.204545 L499.21071,162.256465 L499.114032,162.381788 L499.019144,162.508902 L498.956483,162.591258 L498.924257,162.636016 L498.827578,162.76313 L498.73269,162.890244 L498.664658,162.981551 L498.637803,163.017358 L498.542915,163.144472 L498.448027,163.273376 L498.374623,163.371845 L498.354929,163.40049 L498.260041,163.527604 L498.166944,163.656508 L498.088169,163.763929 L498.072056,163.785413 L497.978959,163.914317 L497.885861,164.043221 L497.803506,164.157803 L497.792763,164.172125 L497.780231,164.191819 L497.520632,164.555258 L497.517052,164.560629 L497.332647,164.820228 L497.24134,164.950922 L497.24134,164.952712 L497.151823,165.081617 L497.060516,165.212311 L496.969208,165.343006 L496.963837,165.351958 L496.879692,165.473701 L496.790175,165.604395 L496.700658,165.73509 Z M490.549059,176.475322 L482.74677,161.619105 L482.383332,160.924454 L482.383332,160.167141 L482.383332,121.891524 C478.893965,120.618594 476.405396,117.270663 476.405396,113.342664 C476.405396,108.317187 480.478413,104.24238 485.503889,104.24238 C490.529366,104.24238 494.602383,108.317187 494.602383,113.342664 C494.602383,117.270663 492.112024,120.618594 488.624447,121.891524 L488.624447,159.411619 L494.092137,169.82601 L494.070653,169.860027 L494.033055,169.926269 L493.972184,170.026528 L493.913103,170.128577 L493.852231,170.230626 L493.823586,170.280756 L493.79315,170.330885 L493.734069,170.432934 L493.674988,170.534984 L493.615907,170.637033 L493.57831,170.703275 L493.556826,170.737292 L493.497745,170.839341 L493.440454,170.94139 L493.381373,171.043439 L493.334824,171.125795 L493.322292,171.147279 L493.265001,171.247538 L493.20771,171.351377 L493.148629,171.453427 L493.094919,171.550105 L493.091338,171.555476 L493.034047,171.659315 L492.976757,171.761365 L492.919466,171.863414 L492.862175,171.967253 L492.856804,171.977995 L492.804884,172.069303 L492.747593,172.173142 L492.692093,172.275191 L492.634802,172.379031 L492.620479,172.404096 L492.579302,172.482871 L492.522011,172.58671 L492.46651,172.69055 L492.41101,172.792599 L492.387736,172.833777 L492.35551,172.896438 L492.300009,173.000278 L492.244509,173.104117 L492.189008,173.209747 L492.158572,173.265248 L492.133508,173.313587 L492.078007,173.417426 L492.024297,173.521266 L491.968797,173.625106 L491.9312,173.698509 L491.915087,173.730735 L491.859586,173.834575 L491.805876,173.938415 L491.752166,174.044044 L491.705617,174.131771 L491.698456,174.147884 L491.642955,174.253514 L491.589245,174.359144 L491.537326,174.462983 L491.483615,174.568613 L491.429905,174.674243 L491.376195,174.779873 L491.324275,174.885503 L491.270565,174.989343 L491.263404,175.005456 L491.218645,175.094972 L491.166726,175.200602 L491.114806,175.308023 L491.062886,175.413652 L491.046773,175.444088 L491.010966,175.519282 L490.959047,175.624912 L490.907127,175.730542 L490.855207,175.837962 L490.831933,175.884511 L490.803287,175.943592 L490.753158,176.049222 L490.701238,176.156642 L490.651109,176.262272 L490.600979,176.369692 L490.549059,176.475322 Z M519.665312,143.386311 L519.665312,134.914436 L519.665312,134.157123 L520.030541,133.462473 L534.15272,106.568028 L534.15272,51.5670807 C530.665144,50.294151 528.174785,46.9444302 528.174785,43.0164305 C528.174785,37.9927445 532.249592,33.9179371 537.275068,33.9179371 C542.298754,33.9179371 546.373562,37.9927445 546.373562,43.0164305 C546.373562,46.9444302 543.883203,50.294151 540.395626,51.5670807 L540.395626,107.32355 L540.395626,108.080863 L540.030397,108.773723 L525.906428,135.668168 L525.906428,139.76804 L525.70591,139.87367 L525.605651,139.92559 L525.507182,139.977509 L525.406924,140.031219 L525.376488,140.047333 L525.306665,140.083139 L525.208196,140.136849 L525.107937,140.190559 L525.007678,140.242479 L524.946807,140.276496 L524.90921,140.296189 L524.808951,140.3499 L524.710482,140.40361 L524.610224,140.45732 L524.517126,140.50924 L524.511755,140.51103 L524.413286,140.56653 L524.314818,140.62024 L524.214559,140.673951 L524.11609,140.729451 L524.089235,140.743774 L524.017622,140.784951 L523.919153,140.838662 L523.820685,140.894162 L523.800991,140.904904 L523.525279,141.060663 L523.426811,141.114373 L523.328342,141.171664 L523.238825,141.221794 L523.231664,141.227165 L523.133195,141.282665 L523.034727,141.338166 L522.938049,141.395456 L522.83958,141.450957 L522.814515,141.46528 L522.742902,141.508248 L522.644433,141.563748 L522.547755,141.621039 L522.449287,141.67833 L522.352608,141.73562 L522.25593,141.792911 L522.159252,141.850202 L522.060783,141.907493 L522.04467,141.918235 L521.867427,142.022074 L521.770749,142.081156 L521.674071,142.138446 L521.577392,142.195737 L521.555908,142.21006 L521.480714,142.254818 L521.384036,142.312109 L521.289148,142.37119 L521.19247,142.430271 L521.13876,142.462497 L521.095792,142.489352 L521.000904,142.548434 L520.904226,142.607515 L520.809338,142.666596 L520.617772,142.784758 L520.521093,142.843839 L520.426206,142.904711 L520.331318,142.963792 L520.311624,142.976324 L520.23464,143.024663 L520.139752,143.083744 L520.044864,143.144616 L519.949976,143.205487 L519.7602,143.32544 L519.665312,143.386311 Z M559.120762,130.973904 L559.120762,17.6491435 C555.633185,16.3762138 553.142827,13.026493 553.142827,9.10028369 C553.142827,4.07480733 557.217634,0 562.24311,0 C567.266796,0 571.341604,4.07480733 571.341604,9.10028369 C571.341604,13.026493 568.851245,16.3762138 565.363668,17.6491435 L565.363668,130.973904 L565.315329,130.972114 L565.26699,130.970323 L565.240135,130.968533 L565.218651,130.968533 L565.170311,130.966743 L565.120182,130.964952 L565.071843,130.963162 L565.023504,130.961372 L564.975165,130.959581 L564.926826,130.957791 L564.830147,130.95421 L564.780018,130.95242 L564.742421,130.95242 L564.731679,130.95242 L564.68334,130.95063 L564.635001,130.948839 L564.586662,130.947049 L564.538322,130.945258 L564.488193,130.945258 L564.391515,130.941678 L564.343176,130.939887 L564.294837,130.939887 L564.244707,130.938097 L564.242917,130.938097 L564.196368,130.936307 L564.148029,130.936307 L564.09969,130.934516 L564.04956,130.932726 L564.001221,130.932726 L563.952882,130.930936 L563.904543,130.930936 L563.856204,130.929145 L563.806075,130.929145 L563.757735,130.927355 L563.745203,130.927355 L563.709396,130.925565 L563.661057,130.925565 L563.610928,130.925565 L563.415781,130.921984 L563.367442,130.920194 L563.319103,130.920194 L563.270764,130.920194 L563.243909,130.918403 L563.220634,130.918403 L563.172295,130.918403 L563.123956,130.918403 L563.073827,130.916613 L563.025488,130.916613 L562.977148,130.916613 L562.927019,130.916613 L562.87868,130.914823 L562.830341,130.914823 L562.780211,130.914823 L562.744405,130.914823 L562.731872,130.914823 L562.683533,130.914823 L562.633404,130.914823 L562.536726,130.913032 L562.486596,130.913032 L562.389918,130.913032 L562.339788,130.913032 L562.291449,130.913032 L562.24311,130.913032 L562.192981,130.913032 L562.144642,130.913032 L562.096303,130.913032 L561.997834,130.913032 L561.947705,130.913032 L561.851026,130.914823 L561.802687,130.914823 L561.752558,130.914823 L561.741816,130.914823 L561.704219,130.914823 L561.65588,130.914823 L561.60575,130.914823 L561.557411,130.916613 L561.509072,130.916613 L561.458943,130.916613 L561.410603,130.918403 L561.362264,130.918403 L561.312135,130.918403 L561.263796,130.918403 L561.240521,130.918403 L561.215457,130.920194 L561.167118,130.920194 L561.116988,130.921984 L561.068649,130.921984 L561.02031,130.921984 L560.970181,130.923774 L560.921841,130.923774 L560.873502,130.925565 L560.825163,130.925565 L560.775034,130.927355 L560.739227,130.927355 L560.726695,130.927355 L560.678356,130.929145 L560.630016,130.929145 L560.579887,130.930936 L560.531548,130.930936 L560.483209,130.932726 L560.43487,130.934516 L560.38474,130.934516 L560.336401,130.936307 L560.288062,130.936307 L560.241513,130.938097 L560.239723,130.938097 L560.191384,130.939887 L560.143045,130.941678 L560.092915,130.941678 L560.044576,130.943468 L559.996237,130.945258 L559.947898,130.945258 L559.897769,130.947049 L559.849429,130.948839 L559.80109,130.95063 L559.752751,130.95242 L559.742009,130.95242 L559.704412,130.95421 L559.656073,130.956001 L559.605944,130.956001 L559.557605,130.957791 L559.509265,130.959581 L559.460926,130.961372 L559.412587,130.963162 L559.364248,130.964952 L559.315909,130.966743 L559.26757,130.968533 L559.244296,130.968533 L559.21744,130.970323 L559.170892,130.972114 L559.120762,130.973904 Z M717.809085,567.789311 L713.274161,567.789311 L707.457356,567.789311 L720.371058,577.489358 L720.369267,591.325083 C716.874529,592.594432 714.377009,595.945943 714.377009,599.879314 C714.377009,604.904791 718.451816,608.977808 723.477292,608.977808 C728.502769,608.977808 732.577576,604.904791 732.577576,599.879314 C732.577576,595.947734 730.081846,592.598013 726.587108,591.325083 L726.588898,575.937136 L726.588898,574.384913 L725.344614,573.450357 L717.809085,567.789311 Z M725.96228,550.566268 L725.96228,555.101192 L725.96228,556.809174 L744.451092,556.809174 L771.986477,577.489358 L771.984687,591.325083 C768.489949,592.594432 765.992429,595.945943 765.992429,599.879314 C765.992429,604.904791 770.067236,608.977808 775.090922,608.977808 C780.116398,608.977808 784.191206,604.904791 784.191206,599.879314 C784.191206,595.947734 781.695476,592.598013 778.200738,591.325083 L778.202528,575.937136 L778.202528,574.384913 L776.960034,573.450357 L747.338906,551.200047 L746.493867,550.566268 L745.473375,550.566268 L725.96228,550.566268 Z M829.826899,570.661012 L878.319971,570.661012 L881.440529,570.661012 L881.440529,573.78157 L881.440529,591.328664 C884.928106,592.601594 887.420255,595.951314 887.420255,599.879314 C887.420255,604.904791 883.345447,608.977808 878.319971,608.977808 C873.294495,608.977808 869.221478,604.904791 869.221478,599.879314 C869.221478,595.951314 871.711837,592.601594 875.199413,591.328664 L875.199413,576.903918 L829.826899,576.903918 L829.826899,591.328664 C833.314476,592.601594 835.804835,595.951314 835.804835,599.879314 C835.804835,604.904791 831.730028,608.977808 826.706342,608.977808 C821.680865,608.977808 817.606058,604.904791 817.606058,599.879314 C817.606058,595.951314 820.096417,592.601594 823.583994,591.328664 L823.583994,564.443171 L796.062931,543.770148 L725.96228,543.770148 L725.96228,537.529033 L797.083423,537.529033 L798.105706,537.529033 L798.948955,538.162812 L828.570083,560.411332 L829.826899,561.35663 L829.826899,562.899901 L829.826899,570.661012 Z" id="Fill-7"></path>
            <path d="M482.921082,240.610936 L482.921082,210.402577 C482.921082,199.701732 485.056954,189.482488 488.920501,180.185267 C492.941599,170.503124 498.855082,161.766278 506.175771,154.44917 C513.503621,147.12132 522.238676,141.204256 531.915448,137.19032 C541.22162,133.319611 551.431913,131.18732 562.138129,131.18732 C572.842555,131.18732 583.052848,133.319611 592.35902,137.19032 C602.037583,141.204256 610.770847,147.12132 618.098697,154.44917 C625.419386,161.766278 631.332869,170.503124 635.353967,180.185267 C639.217514,189.482488 641.353386,199.701732 641.353386,210.402577 L641.353386,240.610936 L713.16918,240.610936 L725.857299,240.610936 L725.857299,253.299055 L725.857299,555.375479 L725.857299,568.063599 L713.16918,568.063599 L411.107078,568.063599 L398.420749,568.063599 L398.420749,555.375479 L398.420749,253.299055 L398.420749,240.610936 L411.107078,240.610936 L482.921082,240.610936 Z M415.103111,551.381237 L709.171357,551.381237 L709.171357,257.295087 L415.103111,257.295087 L415.103111,551.381237 Z M520.288998,240.610936 L603.985469,240.610936 L611.597983,240.610936 L611.597983,210.402577 C611.597983,207.228309 611.259609,204.009283 610.613298,200.790257 C609.959825,197.531843 609.010946,194.438141 607.802468,191.541375 C606.563555,188.562254 605.018494,185.701295 603.206673,182.997886 C601.389481,180.285526 599.327012,177.773683 597.060445,175.507116 C594.779556,173.222646 592.264132,171.153016 589.553562,169.339404 C586.846572,167.525793 583.976662,165.977151 580.99217,164.734657 C578.097194,163.52976 575.001702,162.580882 571.739707,161.927409 L571.739707,161.896973 C568.62273,161.272145 565.409075,160.942723 562.138129,160.942723 C558.865393,160.942723 555.651738,161.272145 552.534761,161.896973 L552.534761,161.927409 C549.272766,162.580882 546.177274,163.52976 543.284089,164.734657 C540.297806,165.977151 537.427896,167.525793 534.720906,169.339404 C532.010336,171.153016 529.494912,173.222646 527.215813,175.507116 C524.947456,177.773683 522.884987,180.285526 521.067795,182.997886 C519.257764,185.701295 517.710913,188.562254 516.472,191.541375 C515.263522,194.438141 514.314643,197.531843 513.66117,200.790257 C513.016649,204.009283 512.676485,207.228309 512.676485,210.402577 L512.676485,240.610936 L520.288998,240.610936 Z" id="Fill-8"></path>
            <path d="M578.457418,360.547074 C574.405885,356.495541 568.809291,353.99086 562.629047,353.99086 C556.448804,353.99086 550.85221,356.495541 546.800677,360.547074 C542.750934,364.598607 540.244462,370.195201 540.244462,376.375445 C540.244462,380.901417 541.571102,385.097968 543.853782,388.598077 C546.209865,392.212767 549.597183,395.107743 553.603958,396.874805 L556.781806,398.276639 L556.781806,401.735571 L556.781806,448.817857 C556.781806,451.601831 558.210495,453.34741 560.036639,454.079658 C560.819017,454.394757 561.708814,454.552307 562.629047,454.552307 C563.549281,454.552307 564.437288,454.392967 565.221456,454.079658 C567.047599,453.34741 568.476288,451.601831 568.476288,448.817857 L568.476288,401.735571 L568.476288,398.276639 L571.654137,396.874805 C575.660911,395.107743 579.048229,392.212767 581.406103,388.598077 C583.686993,385.097968 585.015423,380.901417 585.015423,376.375445 C585.015423,370.195201 582.508951,364.598607 578.457418,360.547074 M562.629047,343.354467 C571.745444,343.354467 580.002479,347.051513 585.978624,353.027658 C591.952979,359.002013 595.650026,367.257258 595.650026,376.375445 C595.650026,382.997902 593.682445,389.181727 590.296918,394.373704 C587.453862,398.733175 583.61717,402.378302 579.112681,404.983242 L579.112681,448.817857 C579.112681,456.64342 574.75142,461.688591 569.169149,463.926512 C567.072664,464.76618 564.834743,465.186909 562.629047,465.186909 C560.423352,465.186909 558.185431,464.76618 556.088946,463.926512 C550.506675,461.688591 546.147204,456.64342 546.147204,448.817857 L546.147204,404.983242 C541.642715,402.378302 537.806023,398.733175 534.961177,394.373704 C531.57565,389.181727 529.608069,382.997902 529.608069,376.375445 C529.608069,367.257258 533.305115,359.002013 539.281261,353.027658 C545.257406,347.051513 553.512651,343.354467 562.629047,343.354467" id="Fill-10"></path>
        </g>
    </g>
</svg>