<?xml version="1.0" encoding="UTF-8"?>
<svg width="1024px" height="1024px" viewBox="0 0 1024 1024" version="1.1" xmlns="http://www.w3.org/2000/svg" xmlns:xlink="http://www.w3.org/1999/xlink">
    <!-- Generator: Sketch 49 (51002) - http://www.bohemiancoding.com/sketch -->
    <title>atticlab-logo-1000</title>
    <desc>Created with Sketch.</desc>
    <defs>
        <polygon id="path-1" points="0.492172461 0.0215675676 97.7553541 0.0215675676 97.7553541 56.7901784 0.492172461 56.7901784"></polygon>
    </defs>
    <g id="atticlab-logo-1000" stroke="none" stroke-width="1" fill="none" fill-rule="evenodd">
        <g id="Page-1" transform="translate(112.000000, 118.000000)">
            <path d="M390,66.0032928 L357.987816,10 L331.615253,56.1315929 C328.127163,62.2429588 328.127163,69.7636267 331.621772,75.8684071 L357.987816,122 L390,66.0032928 Z" id="Fill-1" fill="#000000"></path>
            <g id="Group-5" transform="translate(372.000000, 0.000000)">
                <mask id="mask-2" fill="white">
                    <use xlink:href="#path-1"></use>
                </mask>
                <g id="Clip-4"></g>
                <path d="M97.7553541,56.7901784 L71.0507369,10.0270703 C67.5112525,3.83204324 60.9803756,0.0202324324 53.9080104,0.0202324324 L0.492172461,0.0202324324 L0.492172461,0.0269081081 L32.9154342,56.7901784 L97.7553541,56.7901784 Z" id="Fill-3" fill="#000000" mask="url(#mask-2)"></path>
            </g>
            <polygon id="Fill-6" fill="#000000" points="309.668885 239 277 296 342.337769 296 375 239"></polygon>
            <path d="M294,229.996707 L261.987388,174 L235.620992,220.131593 C232.126336,226.242959 232.126336,233.757041 235.620992,239.868407 L261.987388,286 L294,229.996707 Z" id="Fill-8" fill="#000000"></path>
            <path d="M323.868939,175.749698 L333.141096,159.812782 L333.193891,159.734243 L335.681865,155.447311 L337.595691,152.161753 L337.83327,151.762512 C339.450123,148.98746 342.380256,147.436311 345.389583,147.436311 C346.867848,147.436311 348.365912,147.809372 349.745187,148.594764 C353.916008,150.983665 355.348077,156.271972 352.939296,160.408371 L352.483938,161.187218 L348.17453,168.582994 L348.134933,168.654988 L338.93537,184.461005 L336.533188,188.584314 L335.391492,190.560884 L332.236978,195.973545 L328.211344,202.884996 C327.808781,203.572214 327.320425,204.193983 326.772675,204.730668 C326.363512,205.129909 325.914753,205.483335 325.439596,205.790947 C324.014126,206.713783 322.351077,207.204653 320.655031,207.204653 C319.170166,207.204653 317.672103,206.831592 316.299427,206.0462 C312.649959,203.958365 311.0991,199.638709 312.379384,195.823012 C312.564167,195.279782 312.808345,194.749643 313.111917,194.232593 L317.130952,187.321142 L320.278866,181.915026 L320.272266,181.915026 L323.868939,175.749698 Z M374.202563,220 L361.162149,197.603234 C359.241723,194.311132 355.585656,192.458915 351.764603,192.753437 C350.741696,192.825432 346.036324,193.119954 346.036324,193.119954 L347.389201,190.691783 L350.207145,185.861621 C351.527025,185.815807 352.846905,185.730723 354.146987,185.547465 C357.136515,185.128589 360.060049,184.343197 362.858195,183.210923 C365.537551,182.117919 368.091519,180.697668 370.460704,178.97635 C374.35435,176.148939 377.746441,172.509955 380.307008,168.111759 L392.94486,146.50693 L398,137.861071 L377.838833,137.861071 L372.777093,146.50693 L365.253777,159.387361 C364.78522,160.185843 364.257268,160.925421 363.696319,161.632274 C364.739024,158.255087 364.857813,154.655373 363.914099,151.160378 C363.46534,149.484875 362.732806,147.959905 361.874884,146.50693 C360.211835,143.692608 357.908645,141.284072 354.978511,139.608569 C352.450941,138.162138 349.626398,137.350566 346.74246,137.147674 C346.293701,137.114949 345.844941,137.062589 345.389583,137.062589 C344.591055,137.062589 343.799127,137.121494 343.007199,137.213123 C339.463322,137.658178 336.137224,139.084974 333.391873,141.270982 C333.108099,141.022275 333.174093,141.081179 332.88372,140.832472 L340.855795,127.029205 L345.86474,118.337532 L341.713717,111.210098 L335.774257,101 L330.758713,109.685128 L317.784292,132.180068 C315.085138,136.807337 313.540878,141.873116 313.092119,147.043615 C312.847941,149.916841 312.920534,152.809702 313.382493,155.696018 C313.580475,156.926466 313.831252,158.156913 314.167821,159.387361 C314.629779,161.102134 315.236924,162.751457 315.94306,164.348422 C316.286229,165.127269 316.701991,165.866846 317.097955,166.619514 L313.052522,173.570234 C312.188001,172.267792 311.389474,170.912991 310.670139,169.51892 C309.00709,166.305357 305.608399,164.348422 301.97213,164.348422 L277,164.348422 L277,164.341877 L277,164.348422 L309.403054,220 L374.202563,220 Z" id="Fill-10" fill="#000000"></path>
            <path d="M199,395.996707 L166.986105,340 L140.618652,386.131593 C137.130377,392.236373 137.123857,399.757041 140.618652,405.868407 L166.986105,452 L199,395.996707 Z" id="Fill-12" fill="#000000"></path>
            <path d="M214.668885,404 L182,461 L235.82049,461 C242.946432,461 249.526784,457.179445 253.086428,450.959313 L280,404 L214.668885,404 Z" id="Fill-14" fill="#000000"></path>
            <path d="M228.848718,341.743153 L237.707529,326.532725 L238.176214,325.734243 C238.176214,325.734243 238.176214,325.734243 238.176214,325.727698 L240.579051,321.597844 L242.579214,318.161753 L242.816858,317.755967 C244.42755,314.980915 247.358483,313.436311 250.375232,313.436311 C251.853901,313.436311 253.358974,313.809372 254.732024,314.594764 C258.903983,316.983665 260.336443,322.271972 257.927005,326.408371 L257.471522,327.187218 L253.60982,333.817237 L253.160938,334.582994 L252.989307,334.884061 L252.78467,335.237488 L243.919258,350.45446 L241.575832,354.48614 L240.374414,356.554339 L237.225641,361.95391 L235.212275,365.416181 L233.192308,368.878451 C231.581615,371.653503 228.644081,373.204653 225.633933,373.204653 C224.148663,373.204653 222.650191,372.831592 221.277141,372.0462 C217.105183,369.657298 215.672722,364.362446 218.08216,360.226048 L218.088762,360.226048 L218.79509,359.015235 L222.115494,353.308052 L225.257665,347.915026 L225.251064,347.915026 L228.848718,341.743153 Z M214.411893,386 L279.229078,386 L266.185106,363.596689 C264.270758,360.304587 260.607092,358.45237 256.784997,358.746893 C255.75521,358.825432 250.903328,359.250852 250.903328,359.250852 L252.381997,356.685238 L255.194108,351.861621 C256.520949,351.815807 257.854392,351.724178 259.168031,351.54092 C262.151773,351.115499 265.082706,350.330107 267.875014,349.197833 C270.555101,348.098284 273.109765,346.678033 275.472995,344.956715 C279.367703,342.129304 282.747518,338.496865 285.302182,334.111759 L297.943481,312.50693 L303,303.861071 L303,303.854526 L282.833333,303.854526 L282.833333,303.861071 L277.770213,312.50693 L270.244845,325.387361 C269.776159,326.185843 269.248063,326.925421 268.686961,327.625729 C269.729951,324.248543 269.848773,320.655373 268.904801,317.160378 C268.455919,315.484875 267.723186,313.959905 266.86503,312.50693 C265.201528,309.686063 262.897709,307.277527 259.966776,305.608569 C257.445117,304.168683 254.639607,303.357111 251.768085,303.154218 C251.306001,303.114949 250.843917,303.056044 250.375232,303.056044 C249.576487,303.056044 248.784343,303.121494 247.9988,303.213123 C244.447354,303.658178 241.12695,305.084974 238.37425,307.270982 C238.090398,307.022275 238.15641,307.081179 237.872559,306.832472 L245.85341,292.99648 L250.850518,284.337532 L240.757283,267 L235.760175,275.652403 L222.762411,298.173523 C220.06252,302.807337 218.51784,307.866571 218.068958,313.043615 C217.824714,315.916841 217.897327,318.809702 218.359411,321.696018 C218.557447,322.926466 218.808292,324.156913 219.144954,325.387361 C219.607038,327.102134 220.214348,328.744913 220.920676,330.341877 C221.263939,331.127269 221.679815,331.866846 222.075887,332.619514 L218.029351,339.570234 C217.164594,338.261247 216.365848,336.912991 215.646318,335.512375 C213.989416,332.305357 210.583197,330.341877 206.945936,330.341877 L182.006601,330.341877 L182,330.341877 L182.006601,330.341877 L214.411893,386 Z" id="Fill-16" fill="#000000"></path>
            <path d="M119.668885,570 L87,627 L140.82049,627 C147.946432,627 154.526784,623.172742 158.086428,616.959313 L185,570 L119.668885,570 Z" id="Fill-18" fill="#000000"></path>
            <path d="M71.9873878,505 L45.6209919,551.135466 C42.126336,557.239887 42.126336,564.760113 45.6209919,570.864534 L71.9873878,617 L104,561 L71.9873878,505 Z" id="Fill-20" fill="#000000"></path>
            <path d="M133.868939,506.766146 L143.048705,490.995929 L143.193891,490.747167 L145.048323,487.552536 L147.595691,483.173011 L147.83327,482.773682 C149.450123,479.99802 152.380256,478.446529 155.389583,478.446529 C156.874448,478.446529 158.372512,478.819672 159.745187,479.611783 C163.916008,481.994664 165.348077,487.284135 162.939296,491.421444 L162.483938,492.200462 L161.975784,493.07113 L158.181129,499.597866 L158.101936,499.722247 L156.689665,502.157498 L148.93537,515.479371 L146.929152,518.922764 L145.384892,521.580592 L142.250177,526.968258 L138.211344,533.907416 C136.601091,536.676532 133.664358,538.228023 130.655031,538.228023 C129.176766,538.228023 127.678702,537.85488 126.299427,537.069315 C122.887537,535.111949 121.349877,531.216856 122.207799,527.603257 C122.399182,526.804599 122.669757,525.999395 123.105318,525.253108 L127.144151,518.320497 L128.384838,516.179833 L130.278866,512.932831 L133.868939,506.766146 Z M184.195964,551 L171.175348,528.624491 C169.261522,525.331665 165.605454,523.479041 161.777802,523.773627 C160.754895,523.845638 159.718789,523.884916 158.682683,523.871823 C158.108536,522.909506 157.969948,522.680383 157.389201,521.711519 L160.207145,516.880295 C161.527025,516.83447 162.853504,516.749367 164.160185,516.566069 C167.149714,516.140555 170.073248,515.361536 172.864794,514.229013 C175.55075,513.129222 178.104718,511.708659 180.473902,509.980416 C184.360949,507.158928 187.753041,503.52569 190.307008,499.126527 L202.958058,477.490758 L208,468.869183 L187.838833,468.869183 L182.796891,477.490758 L175.253777,490.400209 C174.78522,491.198867 174.257268,491.938607 173.696319,492.645616 C174.739024,489.267686 174.857813,485.66718 173.914099,482.171416 C173.46534,480.488998 172.719607,478.9506 171.855086,477.490758 C170.198636,474.68891 167.895446,472.28639 164.978511,470.617065 C162.450941,469.176862 159.639596,468.365112 156.755659,468.162174 C156.3003,468.129442 155.851541,468.070525 155.389583,468.070525 C154.591055,468.070525 153.799127,468.129442 153.007199,468.221091 C149.463322,468.672791 146.143823,470.093355 143.391873,472.279844 C143.108099,472.031082 143.174093,472.089999 142.890319,471.841237 L150.862394,458.02184 L155.86474,449.341347 L145.774257,432 L140.765312,440.680493 L127.784292,463.186929 C125.091737,467.80867 123.547478,472.862471 123.098718,478.027561 C122.847941,480.894873 122.913935,483.794917 123.375893,486.681868 C123.573875,487.925679 123.831252,489.169491 124.167821,490.400209 C124.629779,492.102266 125.230325,493.745407 125.923262,495.329629 C126.27303,496.121741 126.695391,496.874574 127.097955,497.633953 L123.052522,504.586203 C122.181402,503.270382 121.376275,501.908736 120.65694,500.501265 C118.993891,497.286995 115.5952,495.329629 111.952332,495.329629 L87,495.329629 L119.403054,551 L184.195964,551 Z" id="Fill-22" fill="#000000"></path>
            <path d="M421.737412,570.914506 L421.55929,570.914506 L412.752129,570.914506 L412.277136,570.914506 C407.467832,570.914506 403.568931,567.015876 403.562334,562.215029 C403.562334,557.407597 407.461235,553.508967 412.270538,553.508967 L412.277136,553.508967 L413.187539,553.508967 L417.891288,553.508967 L421.790189,553.508967 L421.796786,553.508967 L431.250465,553.502381 L440.268734,553.502381 L441.205526,553.502381 L447.36724,553.502381 L447.36724,553.508967 L461.709388,553.508967 C464.130533,553.508967 466.320778,554.496795 467.904088,556.090492 C468.431858,556.617334 468.887059,557.216617 469.263096,557.868584 C469.289484,557.901511 469.296081,557.954195 469.315873,557.993708 C470.015168,559.251543 470.424189,560.674017 470.424189,562.215029 C470.424189,563.413594 470.186693,564.559476 469.744686,565.599988 C469.652326,565.823896 469.513786,566.021462 469.401635,566.232199 C469.249901,566.515376 469.117959,566.811725 468.939836,567.075146 C467.369721,569.39325 464.724274,570.914506 461.715985,570.914506 L447.380434,570.914506 L440.196166,570.914506 L421.737412,570.914506 Z M453.614717,505 L440.559008,527.575175 C438.639244,530.894279 438.850352,534.990475 441.020806,538.14494 C441.621145,539.014229 442.716267,540.845005 442.716267,540.845005 L444.174232,543.064326 L435.861855,543.064326 C435.142769,541.91186 434.377502,540.785735 433.53307,539.71888 C431.659487,537.354677 429.515421,535.227553 427.120665,533.396778 C424.818269,531.631857 422.298167,530.143529 419.613138,528.971306 C415.22605,527.061504 410.396955,525.981478 405.323767,525.981478 L380.142543,525.928794 L370.068734,525.909037 L380.142543,543.340918 L390.222949,543.354089 L405.231407,543.380432 C406.14181,543.387017 407.032422,543.459458 407.909839,543.591168 C402.665125,544.80949 398.251649,548.181278 395.639188,552.72529 C394.02949,555.524137 393.099295,558.757629 393.099295,562.208444 C393.105892,565.145587 393.791993,567.924678 394.986073,570.414006 C395.553425,571.5994 396.239526,572.712354 397.024584,573.759452 C399.155455,576.551714 402.018607,578.751279 405.336961,580.048627 C405.264392,580.404245 405.284184,580.331805 405.211615,580.680837 L389.009078,580.746693 L379.087003,580.786206 L369,598.231258 L378.915478,598.19833 L405.205018,598.092962 C410.601466,598.092962 415.806597,596.881225 420.54993,594.655318 C423.175585,593.423825 425.669298,591.909155 427.951903,590.045452 C428.928277,589.261775 429.865069,588.425413 430.762278,587.529782 C432.035523,586.258776 433.170228,584.895572 434.219171,583.479685 C434.72715,582.801376 435.16256,582.070383 435.617761,581.359146 L443.705836,581.359146 C442.999944,582.755277 442.221483,584.118481 441.370454,585.435585 C439.391317,588.484683 439.384719,592.409655 441.205526,595.55095 L453.614717,617 L486,561.003293 L453.614717,505 Z" id="Fill-24" fill="#000000"></path>
            <path d="M501.668885,570 L469,627 L522.827144,627 C529.946432,627 536.526784,623.172742 540.093082,616.952611 L567,570 L501.668885,570 Z" id="Fill-26" fill="#000000"></path>
            <path d="M469,497 L501.668885,554 L567,554 L540.093082,507.047389 C536.526784,500.827258 529.946432,497 522.82049,497 L469,497 Z" id="Fill-28" fill="#000000"></path>
            <path d="M309.668885,570 L277,627 L330.82049,627 C337.946432,627 344.526784,623.172742 348.086428,616.952611 L375,570 L309.668885,570 Z" id="Fill-30" fill="#000000"></path>
            <path d="M231.351028,570.914506 L230.978642,570.914506 L222.101212,570.914506 L221.622429,570.914506 C216.774753,570.914506 212.844745,567.015876 212.838095,562.215029 C212.838095,557.407597 216.774753,553.508967 221.622429,553.508967 L222.540096,553.508967 L227.281375,553.508967 L231.218033,553.508967 L231.291181,553.508967 L240.74714,553.502381 L249.837363,553.502381 L250.781629,553.502381 L256.992505,553.502381 L256.992505,553.508967 L271.449084,553.508967 C273.889546,553.508967 276.097267,554.496795 277.693209,556.090492 C278.22519,556.617334 278.684024,557.216617 279.06306,557.868584 C279.089659,557.901511 279.096309,557.954195 279.122908,557.993708 C279.827782,559.251543 280.240068,560.674017 280.240068,562.215029 C280.240068,563.413594 279.994026,564.559476 279.548493,565.599988 C279.501944,565.711942 279.422147,565.810725 279.375599,565.916093 C279.182756,566.31781 278.989913,566.712942 278.737222,567.075146 C277.161229,569.39325 274.488025,570.914506 271.455734,570.914506 L257.005804,570.914506 L249.770865,570.914506 L249.764215,570.914506 L231.351028,570.914506 Z M263.349676,505 L250.163201,527.627859 C248.23477,530.946963 248.447563,535.043159 250.635334,538.197625 C251.227163,539.053743 252.311074,540.851591 252.311074,540.851591 L254.08656,543.064326 L245.395323,543.064326 C244.677148,541.925031 243.925726,540.818663 243.087856,539.771565 C241.205974,537.400776 239.044801,535.267067 236.630938,533.436291 C234.316822,531.664785 231.776613,530.169871 229.070161,528.997648 C224.63477,527.074675 219.747196,525.981478 214.613581,525.981478 L189.297943,525.928794 L179.137109,525.909037 L179.077261,525.909037 L189.231445,543.340918 L189.297943,543.340918 L199.458777,543.354089 L214.520485,543.380432 C215.438152,543.387017 216.335869,543.459458 217.220287,543.591168 C211.960327,544.802905 207.524937,548.154936 204.884982,552.66602 C203.249141,555.484624 202.291575,558.731287 202.291575,562.208444 C202.298225,565.171929 203.003099,567.970777 204.220006,570.479861 C204.791885,571.638913 205.470161,572.73211 206.248183,573.759452 C208.396055,576.551714 211.282051,578.751279 214.626881,580.048627 C214.560383,580.404245 214.573683,580.331805 214.500535,580.680837 L198.235221,580.746693 L188.167484,580.786206 L178,598.231258 L188.067737,598.19833 L214.493886,598.092962 C219.953339,598.092962 225.219949,596.868054 230.014427,594.635562 C232.661031,593.397483 235.174641,591.876227 237.468808,590.012524 C238.433023,589.235432 239.37064,588.412242 240.255058,587.529782 C241.551761,586.245605 242.708819,584.862645 243.779431,583.427001 C244.271513,582.761863 244.703748,582.050626 245.149281,581.359146 L253.301888,581.359146 C252.597013,582.735521 251.825641,584.078967 250.981121,585.376316 C248.992843,588.431999 248.979544,592.356971 250.814877,595.498265 L263.349676,617 L296,561.003293 L263.349676,505 Z" id="Fill-32" fill="#000000"></path>
            <path d="M309.668885,554 L375,554 L348.086428,507.047389 C344.526784,500.827258 337.946432,497 330.82049,497 L277.006654,497 L277,497 L309.668885,554 Z" id="Fill-34" fill="#000000"></path>
            <path d="M547.987388,340 L521.620992,386.131593 C518.126336,392.236373 518.126336,399.757041 521.620992,405.868407 L547.987388,452 L580,395.996707 L547.987388,340 Z" id="Fill-36" fill="#000000"></path>
            <path d="M564,331 L596.668885,388 L662,388 L635.086428,341.047389 C631.526784,334.827258 624.946432,331 617.82049,331 L564,331 Z" id="Fill-38" fill="#000000"></path>
            <path d="M611.842328,570.91063 L611.565217,570.91063 L602.757063,570.91063 L602.532736,570.91063 C597.72289,570.91063 593.823549,567.01223 593.816951,562.211665 C593.816951,557.404516 597.716292,553.506115 602.526138,553.506115 L602.532736,553.506115 L603.185925,553.506115 L607.995771,553.506115 L611.802741,553.506115 L611.895111,553.506115 L621.006767,553.49953 L630.276772,553.49953 L631.240061,553.49953 L637.376078,553.49953 C637.376078,553.49953 637.376078,553.506115 637.376078,553.506115 L651.719844,553.506115 C654.9528,553.506115 657.77009,555.257761 659.274404,557.865475 C660.019963,559.142992 660.442226,560.624647 660.442226,562.211665 C660.442226,567.005644 656.542886,570.89746 651.739638,570.91063 L637.395872,570.91063 L630.204196,570.91063 L611.842328,570.91063 Z M643.604466,505 L630.553883,527.560677 C628.633903,530.879586 628.851633,534.982126 631.028929,538.136406 C631.629335,539.005644 632.196752,539.907808 632.724581,540.836312 L634.486212,543.062088 L625.869396,543.062088 C625.150228,541.903104 624.378278,540.777046 623.527153,539.710254 C621.659956,537.34619 619.515649,535.219191 617.120623,533.388523 C614.817967,531.630292 612.297581,530.135466 609.612248,528.963311 C605.224666,527.053622 600.395026,525.980245 595.327863,525.980245 L570.130604,525.927563 L560.068855,525.907808 L570.150398,543.338664 L580.212147,543.351834 L595.235493,543.378175 C596.192184,543.38476 597.135679,543.470367 598.052783,543.608655 C592.774488,544.879586 588.334123,548.317027 585.754356,552.946378 C584.230249,555.69238 583.352732,558.84666 583.352732,562.20508 C583.35933,565.043274 583.999323,567.736595 585.114363,570.16651 C585.708171,571.444026 586.433937,572.642521 587.278464,573.755409 C589.356792,576.481656 592.141093,578.648166 595.360853,579.952023 C595.281678,580.366886 595.301472,580.274694 595.2157,580.676388 L578.991541,580.742239 L569.088141,580.78175 L559,598.225776 L568.9034,598.19285 L595.209102,598.087488 C600.59956,598.087488 605.79868,596.875823 610.549146,594.656632 C613.168499,593.425212 615.662494,591.904045 617.951954,590.053622 C618.928439,589.263405 619.871934,588.420508 620.775842,587.524929 C622.036035,586.260583 623.170868,584.89746 624.219929,583.488241 C624.734563,582.803387 625.170022,582.065851 625.625275,581.354657 L633.707664,581.354657 C633.00829,582.750706 632.223143,584.120414 631.36542,585.437441 C629.392658,588.492944 629.38606,592.417686 631.207072,595.558796 L643.604466,617 L676,561 L643.604466,505 Z" id="Fill-40" fill="#000000"></path>
            <path d="M661,627 L714.82049,627 C721.946432,627 728.526784,623.172742 732.086428,616.959313 L759,570 L693.662231,570 L661,627 Z" id="Fill-42" fill="#000000"></path>
            <path d="M693.331138,554 L758,554 L731.365834,507.047389 C727.842273,500.827258 721.32204,497 714.274919,497 L661,497 L693.331138,554 Z" id="Fill-44" fill="#000000"></path>
            <path d="M442.835596,144.982099 C442.081269,144.982099 441.326943,144.88275 440.605701,144.697297 C438.422124,144.121069 436.470139,142.710305 435.25263,140.610717 L434.809298,139.83579 L432.5,135.828689 L431.077367,133.358196 L430.508314,132.384569 L429.052596,129.86109 L421.211571,116.263441 L419.405158,113.130616 L417.611978,110.017662 L410.465728,97.6320783 C408.05056,93.4461483 409.486427,88.0878931 413.668307,85.6703861 C413.668307,85.6703861 413.674924,85.6703861 413.681541,85.6637628 C414.303529,85.3061042 414.965219,85.0544185 415.626909,84.8623426 C415.805565,84.8159795 415.970987,84.7828629 416.143027,84.7431231 C416.672379,84.6305269 417.195114,84.5576705 417.731082,84.5378006 C417.896505,84.5311773 418.061927,84.524554 418.233967,84.524554 C419.610282,84.5576705 420.953512,84.9153291 422.164404,85.5577898 C422.32321,85.6438928 422.462165,85.7498657 422.614354,85.8359687 C423.064303,86.1141476 423.481167,86.4320664 423.878181,86.7897249 C424.023753,86.9155678 424.169325,87.0414106 424.301663,87.1805 C424.791313,87.6904947 425.241262,88.2402291 425.611809,88.8760666 L432.837462,101.40074 L434.617408,104.487201 L436.390736,107.567039 L444.205294,121.111701 L445.713946,123.727907 L446.256532,124.668417 L447.771802,127.29787 L450.160502,131.44406 L450.405327,131.861328 C452.813879,136.040635 451.384628,141.392267 447.202749,143.809774 C445.826434,144.604571 444.324398,144.982099 442.835596,144.982099 M468.218018,113.633988 C465.902104,111.858941 463.361215,110.408437 460.654903,109.242735 C459.020529,108.527418 457.339837,107.891581 455.592976,107.427949 C454.401934,107.11003 453.204276,106.911331 452.013234,106.719255 C450.597218,106.48744 449.181201,106.34835 447.771802,106.282117 L445.707329,102.705531 L443.761961,99.3342682 C444.562606,99.2945283 445.356634,99.1819321 446.157279,99.1819321 C449.353241,99.1819321 452.549203,99.612447 455.698846,100.327764 L471.460299,73 L406.488972,73 L374,129.317978 L405.092806,129.317978 C406.316932,125.47646 408.077027,121.800525 410.340007,118.409392 L412.285375,121.787278 L414.329997,125.337371 C413.635222,126.628916 413.013234,127.953577 412.483882,129.317978 C411.392094,132.139507 410.670852,135.073632 410.300305,138.07399 C409.942993,140.968375 409.890058,143.9025 410.240753,146.823378 C410.80319,151.51268 412.291992,156.162241 414.79318,160.500507 L428.285036,184 L438.395657,166.47473 L429.978962,151.823975 C429.548863,151.082165 429.25772,150.293991 428.946725,149.519064 C430.720054,151.380214 432.850696,152.857211 435.193078,153.8772 C436.728198,154.546154 438.349338,155.016409 440.023414,155.261471 C440.949779,155.400561 441.882762,155.486664 442.835596,155.486664 C443.497285,155.486664 444.152358,155.427054 444.807431,155.354198 C447.493892,155.076019 450.10095,154.261352 452.449949,152.903574 C454.878351,151.499433 456.889888,149.591921 458.46471,147.36649 C459.285205,146.220658 459.946895,144.968853 460.496098,143.644191 C460.826943,142.849394 461.184255,142.067844 461.40923,141.220061 C461.614354,140.451757 461.680523,139.683454 461.79301,138.91515 C462.137089,136.47115 462.011367,134.033773 461.42908,131.662629 C461.766542,132.139507 462.150322,132.576645 462.448083,133.08664 L470.765524,147.36649 L491,147.36649 L477.594164,124.343875 C475.165762,120.118205 471.976417,116.50188 468.218018,113.633988" id="Fill-46" fill="#000000"></path>
            <polygon id="Fill-48" fill="#000000" points="454 174 452.077393 177.365203 450.083096 180.848945 448.095316 184.332687 439.466395 199.433292 437.700204 202.528488 435.953564 205.577586 422 229.996707 454 286 486 229.996707"></polygon>
            <polygon id="Fill-50" fill="#000000" points="454 156.008 454 156.008 454 156"></polygon>
            <path d="M476.338855,166.006703 L472.266888,166.006703 L469.006654,166.006703 L469,166 L469,166.006703 L501.668885,223 L567,223 L540.093082,176.047389 C536.526784,169.83396 529.946432,166.006703 522.82049,166.006703 L505.414828,166.006703 L501.861837,166.006703 L498.322154,166.006703 L480.410822,166.006703 L476.338855,166.006703 Z" id="Fill-52" fill="#000000"></path>
            <path d="M539.211319,311.005252 C536.198778,311.005252 533.271933,309.442644 531.656895,306.647092 L531.175679,305.809745 L526.884292,298.372521 L526.752452,298.154942 L517.655501,282.390401 L514.115601,276.252053 L506.963288,263.863273 C506.725977,263.461083 506.561177,263.045706 506.402969,262.623736 C506.343641,262.47209 506.264537,262.327038 506.218393,262.175393 C506.073369,261.727049 505.987674,261.291892 505.915162,260.843549 C505.888794,260.658937 505.869018,260.487512 505.849242,260.309493 C505.80969,259.84137 505.783322,259.386433 505.816282,258.931497 C505.822874,258.865564 505.836058,258.799631 505.84265,258.727105 C505.928346,257.804045 506.172249,256.894172 506.541401,256.043639 C506.607321,255.898586 506.653465,255.746941 506.725977,255.608482 C506.910553,255.239258 507.13468,254.889814 507.371992,254.546963 C507.510424,254.349165 507.655448,254.157959 507.813656,253.973347 C508.064151,253.670056 508.314647,253.379952 508.604695,253.116221 C508.861783,252.885456 509.15183,252.674471 509.435286,252.476672 C509.67919,252.305247 509.890133,252.107448 510.147221,251.962396 C510.786645,251.593172 511.459028,251.329441 512.138003,251.144829 C512.283027,251.105269 512.421459,251.078896 512.566483,251.045929 C513.093842,250.92725 513.61461,250.861318 514.141969,250.841538 C514.339729,250.834944 514.537489,250.815165 514.735248,250.821758 C515.295568,250.841538 515.849295,250.914064 516.389839,251.039336 C516.66011,251.098676 516.92379,251.184388 517.194062,251.270101 C517.622541,251.415153 518.044429,251.573392 518.446541,251.784377 C518.749772,251.936023 519.033228,252.120635 519.323276,252.318433 C519.567179,252.483265 519.804491,252.661284 520.035211,252.859083 C520.325259,253.103034 520.621898,253.353579 520.885578,253.643683 C521.037194,253.808515 521.169034,253.999721 521.307466,254.190926 C521.544777,254.50081 521.795273,254.804101 521.999625,255.153545 L529.158529,267.555512 C529.178305,267.548919 529.184897,267.542326 529.204673,267.542326 L532.790718,273.766385 C532.777534,273.772979 532.76435,273.772979 532.751166,273.779572 L541.82834,289.504554 L542.065652,289.906744 C542.078836,289.906744 542.098612,289.913337 542.111796,289.913337 L546.528431,297.561547 L546.745967,297.937364 C549.152045,302.097726 547.728174,307.431692 543.562034,309.831648 C542.184308,310.629435 540.687925,311.005252 539.211319,311.005252 M555.480358,274.801531 C554.300391,274.346594 553.100648,273.950997 551.861354,273.621333 C550.140844,273.159803 548.400557,272.856512 546.660271,272.658714 C545.816496,272.559814 544.979313,272.546628 544.14213,272.513662 L540.101238,265.511594 C541.656948,265.419288 543.212659,265.412695 544.774961,265.491814 C548.413741,265.676426 551.81521,263.718221 553.6346,260.573225 L566.093467,239 L501.360094,239 L469,295.062692 L495.044965,295.062692 C498.874913,295.062692 502.322525,292.834162 503.970524,289.379281 C504.425371,288.436442 505.44713,286.596916 505.44713,286.596916 L506.574361,283.715651 L510.793237,291.416606 C510.160405,292.609991 509.567126,293.816561 509.066134,295.062692 C507.945495,297.864838 507.16764,300.785662 506.765529,303.779013 C506.383193,306.653685 506.350233,309.57451 506.666649,312.495334 C507.194008,317.275465 508.670615,322.029223 511.221716,326.453316 L523.772871,348.290272 L528.776194,357 L538.842167,339.554171 L533.845437,330.844443 L526.35034,317.816114 C525.875717,316.985361 525.480197,316.128234 525.144006,315.264514 C528.73005,319.134771 533.812477,321.4622 539.211319,321.4622 C539.231095,321.4622 539.244279,321.455607 539.264055,321.455607 C542.599603,321.449014 545.889008,320.55892 548.789485,318.89082 C551.327402,317.427111 553.390696,315.396379 554.999143,313.035984 C555.697894,311.994245 556.291173,310.893166 556.785573,309.726155 C557.128356,308.921775 557.484324,308.117394 557.715044,307.253674 C558.552227,304.121864 558.499491,300.917528 557.761188,297.851651 C558.071011,298.293401 558.426979,298.695591 558.697251,299.163715 L566.779034,313.035984 L571.841685,321.725932 L592,321.719338 L586.943941,313.035984 L573.792915,290.46058 C571.09679,285.792535 567.45801,281.902498 563.166622,278.909147 C560.786912,277.254233 558.229219,275.856456 555.480358,274.801531" id="Fill-54" fill="#000000"></path>
            <path d="M626.692448,471.644278 L626.204928,470.800291 L622.008302,463.520899 L621.916069,463.362651 L612.699304,447.386232 L609.154901,441.247541 L602.006802,428.858069 C601.776219,428.449262 601.611516,428.033862 601.453401,427.611869 C601.394108,427.460215 601.315051,427.315154 601.268934,427.1635 C601.123996,426.721726 601.031762,426.279951 600.965881,425.831582 C600.939529,425.64696 600.913176,425.475525 600.9,425.297497 C600.860471,424.829347 600.834119,424.380979 600.867059,423.919423 C600.867059,423.853487 600.886824,423.78755 600.893412,423.721614 C600.979057,422.791909 601.222817,421.888578 601.591751,421.031404 C601.657633,420.886343 601.703749,420.734689 601.76963,420.596223 C601.960686,420.226978 602.184681,419.877515 602.421853,419.541238 C602.560204,419.336835 602.705142,419.145619 602.863257,418.960997 C603.107017,418.664283 603.357365,418.374162 603.65383,418.103822 C603.910766,417.873044 604.194055,417.668641 604.483931,417.464238 C604.721103,417.292803 604.938511,417.101587 605.195447,416.949933 C605.834494,416.580688 606.506481,416.323536 607.185056,416.13232 C607.323407,416.092758 607.468345,416.066384 607.613283,416.033415 C608.133744,415.921323 608.660793,415.848793 609.187841,415.829012 C609.385485,415.822418 609.583128,415.809231 609.780771,415.815825 C610.340761,415.835606 610.887574,415.908136 611.434387,416.026822 C611.704499,416.092758 611.968024,416.171882 612.231548,416.264193 C612.659775,416.40266 613.088002,416.560907 613.489877,416.771904 C613.79293,416.923558 614.076219,417.114774 614.359507,417.312584 C614.609855,417.470831 614.847027,417.655454 615.071023,417.84667 C615.367488,418.090635 615.663953,418.341194 615.920889,418.631314 C616.079004,418.796156 616.204178,419.000559 616.349116,419.185181 C616.592876,419.495083 616.836636,419.798391 617.040868,420.141261 L624.195554,432.54392 C624.208731,432.537327 624.221907,432.537327 624.235083,432.530733 L627.825603,438.755141 C627.812426,438.761734 627.792662,438.761734 627.779486,438.768328 L636.989663,454.738154 L637.088484,454.902995 L637.141189,454.902995 L641.555222,462.551632 L641.77263,462.92747 C644.17729,467.094658 642.754258,472.422329 638.583985,474.829012 C637.213658,475.626844 635.718157,475.996089 634.242421,475.996089 C631.231655,475.996089 628.306535,474.439987 626.692448,471.644278 M650.455758,439.777157 C649.296251,439.335382 648.103803,438.939763 646.885003,438.61008 C645.145742,438.148525 643.386717,437.845217 641.63428,437.647407 C640.810766,437.555096 639.99384,437.535315 639.170327,437.502347 L635.125228,430.499888 C636.666845,430.414171 638.208463,430.407577 639.75008,430.480107 C643.380129,430.658136 646.786181,428.706415 648.604499,425.561243 L661.036261,404 L596.347616,404 L564,460.072418 L589.838565,460.072418 C593.659668,460.072418 597.302892,458.021793 598.930155,454.560125 C599.358382,453.656795 599.812962,452.779839 600.320246,451.909477 C600.79459,451.078677 601.315051,450.287439 601.848688,449.4962 L605.841082,456.406348 C605.202035,457.606392 604.609106,458.826218 604.108409,460.072418 C602.988431,462.874721 602.211034,465.795709 601.815747,468.782633 C601.433637,471.664059 601.394108,474.585047 601.716926,477.506035 C602.243974,482.279839 603.719711,487.027269 606.262721,491.445016 L618.780129,513.24363 L623.800268,521.973625 L623.813444,522 L633.873487,504.546603 L633.860311,504.526822 L628.84676,495.790232 L621.38902,482.807331 C620.914676,481.976531 620.519389,481.119356 620.183396,480.255588 C623.767327,484.139249 628.840171,486.447027 634.235833,486.453621 L634.242421,486.453621 C637.589181,486.453621 640.902999,485.563478 643.808356,483.882097 C646.344778,482.424899 648.406856,480.394055 650.007766,478.046714 C650.712694,476.998324 651.312212,475.897184 651.80632,474.723514 C652.142314,473.912494 652.498072,473.108069 652.735244,472.2443 C653.571934,469.112316 653.519229,465.914394 652.78136,462.841752 C653.084413,463.283527 653.44676,463.68574 653.716872,464.153889 L661.800482,478.046714 L666.846974,486.717367 L687,486.717367 L681.953508,478.046714 L668.803642,455.450268 C666.102517,450.768775 662.446117,446.865333 658.144081,443.871815 C655.765774,442.216808 653.202999,440.818954 650.455758,439.777157" id="Fill-56" fill="#000000"></path>
            <path d="M41.1097257,750.356445 L63.3665835,750.356445 L52.3690773,720.300093 L41.1097257,750.356445 Z M75.9351621,785 L70.5673317,770.29995 L33.5162095,770.29995 L28.0174564,785 L0,785 L39.1458853,693 L67.1633416,693 L105,785 L75.9351621,785 Z" id="Fill-58" fill="#000000"></path>
            <polygon id="Fill-60" fill="#000000" points="109 693 190 693 190 714.779458 163.175325 714.779458 163.175325 785 135.693182 785 135.693182 714.779458 109 714.779458"></polygon>
            <polygon id="Fill-62" fill="#000000" points="206 693 287 693 287 714.779458 260.175325 714.779458 260.175325 785 232.693182 785 232.693182 714.779458 206 714.779458"></polygon>
            <polygon id="Fill-64" fill="#000000" points="308 785 336 785 336 693 308 693"></polygon>
            <path d="M421.513493,717.443643 C417.463793,715.178378 413.527511,714.045745 409.704648,714.045745 C405.521514,714.045745 401.745352,715.111752 398.362819,717.250429 C394.980285,719.382444 392.311619,722.333952 390.356822,726.111615 C388.402024,729.882616 387.421289,734.126657 387.421289,738.837077 C387.421289,743.547496 388.402024,747.791538 390.356822,751.562539 C392.311619,755.333539 394.980285,758.311697 398.362819,760.49035 C401.745352,762.662339 405.521514,763.754997 409.704648,763.754997 C413.260645,763.754997 417.063493,762.782265 421.113193,760.823477 C425.156222,758.864689 428.785607,756.19967 431.988006,752.828422 L448,769.884539 C442.929535,775.387801 436.811619,779.785081 429.652924,783.076379 C422.487556,786.361014 415.395577,788 408.370315,788 C399.029985,788 390.603673,785.887973 383.084708,781.677244 C375.565742,777.459853 369.674663,771.616801 365.404798,764.15475 C361.134933,756.692699 359,748.337867 359,739.096916 C359,730.042517 361.181634,721.840923 365.538231,714.518786 C369.894828,707.189986 375.899325,701.440209 383.551724,697.262793 C391.204123,693.085377 399.783883,691 409.304348,691 C416.32961,691 423.354873,692.512398 430.386807,695.530531 C437.412069,698.548664 443.283133,702.592829 448,707.656364 L431.988006,726.711244 C429.052474,722.806992 425.556522,719.708909 421.513493,717.443643" id="Fill-66" fill="#000000"></path>
            <polygon id="Fill-67" fill="#000000" points="511 693 538.346614 693 538.346614 762.157489 577 762.157489 577 785 511 785"></polygon>
            <path d="M631.109726,750.356445 L653.366584,750.356445 L642.369077,720.300093 L631.109726,750.356445 Z M665.935162,785 L660.567332,770.29995 L623.516209,770.29995 L618.017456,785 L590,785 L629.145885,693 L657.163342,693 L695,785 L665.935162,785 Z" id="Fill-68" fill="#000000"></path>
            <path d="M768.074803,762.295292 C770.169685,760.720399 771.220472,758.58117 771.220472,755.871041 C771.220472,753.331526 770.169685,751.336662 768.074803,749.89301 C765.979921,748.449358 763.142126,747.766904 759.574803,747.858773 L742.708661,747.858773 L742.708661,764.526391 L759.574803,764.526391 C763.142126,764.61826 765.979921,763.863623 768.074803,762.295292 M766.133858,726.92582 C767.740157,725.482168 768.543307,723.533238 768.543307,721.085592 C768.543307,718.723252 767.740157,716.866191 766.133858,715.507846 C764.527559,714.149501 762.338976,713.473609 759.574803,713.473609 L742.708661,713.473609 L742.708661,729.091298 L759.574803,729.091298 C762.338976,729.091298 764.527559,728.369472 766.133858,726.92582 M780.055118,695.821683 C785.496457,697.704993 789.692913,700.395435 792.637795,703.899572 C795.582677,707.397147 797.055118,711.504993 797.055118,716.22311 C797.055118,720.869044 795.629528,724.97689 792.771654,728.566334 C789.91378,732.155777 786.03189,734.642796 781.125984,736.047076 C786.835039,737.182311 791.412992,739.872753 794.846457,744.11184 C798.279921,748.364051 800,753.416833 800,759.276748 C800,764.441084 798.480709,768.968902 795.448819,772.8602 C792.416929,776.75806 788.106693,779.750357 782.531496,781.843652 C776.956299,783.950071 770.464173,785 763.055118,785 L715,785 L715,693 L761.047244,693 C768.275591,693 774.61378,693.938374 780.055118,695.821683" id="Fill-69" fill="#000000"></path>
        </g>
    </g>
</svg>